# xmcd
#
# Track frame offsets: 
#        150
#        19468
#        40529
#        66128
#        89958
#        112576
#        134419
#        156095
#        180397
#        203813
#        224980
#        248227
#        275342
#        298324
#        314272
#        334381
#
# Disc length: 4696 seconds
#
# Revision: 1
# Processed by: cddbd v1.5.2PL0 Copyright (c) Steve Scherf et al.
# Submitted via: ExactAudioCopy v1.0b6
#
DISCID=fb125610
DTITLE=aiko - ????
DYEAR=1900
DGENRE=JPop
TTITLE0=???????
TTITLE1=??????
TTITLE2=??
TTITLE3=??
TTITLE4=?????
TTITLE5=????
TTITLE6=??
TTITLE7=???
TTITLE8=???
TTITLE9=???
TTITLE10=KissHug
TTITLE11=?????????
TTITLE12=mix juice
TTITLE13=????
TTITLE14=????
TTITLE15=???
EXTD=
EXTT0=
EXTT1=
EXTT2=
EXTT3=
EXTT4=
EXTT5=
EXTT6=
EXTT7=
EXTT8=
EXTT9=
EXTT10=
EXTT11=
EXTT12=
EXTT13=
EXTT14=
EXTT15=
PLAYORDER=
